:FULLY-SPECIFIED
:FORCE-ALL-JOINTS-BE-3DOF
:DEGREES
68
root 5.9209 16.7676 -28.0936 11.2129 2.85026 -3.90753
lfemur -36.1312 15.7935 -17.9202
ltibia 53.2585 0 0
lfoot -21.1809 -10.8327 0
ltoes 31.3072 0 0
rfemur -17.2588 -0.130034 21.9553
rtibia 30.2384 0 0
rfoot -26.3605 -18.3223 0
rtoes -10.1168 0 0
lowerback -3.6649 2.53368 3.30097
upperback -1.44573 3.26722 -0.165552
thorax 0.759664 1.62862 -1.87215
lowerneck -10.0359 -2.42677 2.23553
upperneck -5.63895 -3.39217 2.00677
head -0.102293 -1.71391 0.155111
lclavicle -3.11217e-14 6.57099e-16 0
lhumerus -40.4407 -11.6277 93.7833
lradius 43.9706 0 0
lwrist 7.87296 0 0
lhand -13.2701 1.8094 0
lfingers 7.12502 0 0
lthumb 12.8326 31.3921 0
rclavicle -3.11217e-14 6.57099e-16 0
rhumerus -39.0218 2.37634 -91.9063
rradius 42.188 0 0
rwrist 8.4056 0 0
rhand -25.1388 -21.7057 0
rfingers 7.12502 0 0
rthumb 1.37752 -51.681 0
69
root 5.93328 16.7689 -28.0715 11.5154 2.9178 -4.01322
lfemur -36.937 15.9294 -17.7873
ltibia 53.2415 0 0
lfoot -21.0981 -9.70732 0
ltoes 30.1853 0 0
rfemur -17.4336 0.0925028 22.033
rtibia 30.1271 0 0
rfoot -26.0995 -18.5984 0
rtoes -10.586 0 0
lowerback -3.87681 2.59207 3.23853
upperback -1.54989 3.34128 -0.132124
thorax 0.769163 1.66489 -1.79188
lowerneck -10.0524 -2.46474 2.33131
upperneck -5.68039 -3.45225 1.94706
head -0.115529 -1.74644 0.120231
lclavicle -3.42204e-14 -2.2573e-15 0
lhumerus -40.5456 -11.2441 93.6019
lradius 43.9962 0 0
lwrist 7.99153 0 0
lhand -13.7689 1.72221 0
lfingers 7.12502 0 0
lthumb 12.3516 31.3326 0
rclavicle -3.42204e-14 -2.2573e-15 0
rhumerus -38.8038 2.5978 -91.8253
rradius 42.1331 0 0
rwrist 8.64673 0 0
rhand -25.1681 -21.6456 0
rfingers 7.12502 0 0
rthumb 1.34921 -51.621 0
70
root 5.94607 16.7702 -28.0486 11.8279 2.98757 -4.12241
lfemur -37.7694 16.0697 -17.65
ltibia 53.224 0 0
lfoot -21.0125 -8.54483 0
ltoes 29.0265 0 0
rfemur -17.6142 0.322377 22.1133
rtibia 30.012 0 0
rfoot -25.83 -18.8835 0
rtoes -11.0707 0 0
lowerback -4.09571 2.6524 3.17403
upperback -1.65749 3.41778 -0.0975937
thorax 0.778975 1.70235 -1.70895
lowerneck -10.0695 -2.50396 2.43025
upperneck -5.72321 -3.51431 1.88539
head -0.129201 -1.78005 0.0842009
lclavicle -3.74212e-14 -5.26778e-15 0
lhumerus -40.6539 -10.8477 93.4145
lradius 44.0226 0 0
lwrist 8.11399 0 0
lhand -14.2842 1.63214 0
lfingers 7.12502 0 0
lthumb 11.8548 31.2712 0
rclavicle -3.74212e-14 -5.26778e-15 0
rhumerus -38.5786 2.82656 -91.7415
rradius 42.0764 0 0
rwrist 8.89582 0 0
rhand -25.1984 -21.5835 0
rfingers 7.12502 0 0
rthumb 1.31997 -51.5591 0
71
root 5.95887 16.7715 -28.0257 12.1404 3.05733 -4.23159
lfemur -38.6018 16.21 -17.5126
ltibia 53.2065 0 0
lfoot -20.927 -7.38234 0
ltoes 27.8677 0 0
rfemur -17.7948 0.55225 22.1935
rtibia 29.897 0 0
rfoot -25.5604 -19.1687 0
rtoes -11.5553 0 0
lowerback -4.31461 2.71272 3.10952
upperback -1.7651 3.49428 -0.0630636
thorax 0.788786 1.73981 -1.62603
lowerneck -10.0866 -2.54318 2.52919
upperneck -5.76602 -3.57638 1.82373
head -0.142874 -1.81365 0.0481709
lclavicle -4.0622e-14 -8.27826e-15 0
lhumerus -40.7622 -10.4514 93.2271
lradius 44.0491 0 0
lwrist 8.23646 0 0
lhand -14.7995 1.54207 0
lfingers 7.12502 0 0
lthumb 11.358 31.2098 0
rclavicle -4.0622e-14 -8.27826e-15 0
rhumerus -38.3534 3.05532 -91.6578
rradius 42.0196 0 0
rwrist 9.1449 0 0
rhand -25.2286 -21.5213 0
rfingers 7.12502 0 0
rthumb 1.29074 -51.4972 0
72
root 5.97125 16.7728 -28.0036 12.4429 3.12487 -4.33728
lfemur -39.4076 16.3459 -17.3797
ltibia 53.1895 0 0
lfoot -20.8442 -6.25695 0
ltoes 26.7458 0 0
rfemur -17.9696 0.774787 22.2712
rtibia 29.7857 0 0
rfoot -25.2994 -19.4448 0
rtoes -12.0245 0 0
lowerback -4.52652 2.77111 3.04708
upperback -1.86926 3.56834 -0.0296354
thorax 0.798285 1.77608 -1.54576
lowerneck -10.1031 -2.58115 2.62497
upperneck -5.80746 -3.63646 1.76402
head -0.15611 -1.84618 0.0132909
lclavicle -4.37207e-14 -1.11927e-14 0
lhumerus -40.8671 -10.0678 93.0457
lradius 44.0747 0 0
lwrist 8.35503 0 0
lhand -15.2983 1.45488 0
lfingers 7.12502 0 0
lthumb 10.877 31.1503 0
rclavicle -4.37207e-14 -1.11927e-14 0
rhumerus -38.1354 3.27678 -91.5768
rradius 41.9647 0 0
rwrist 9.38603 0 0
rhand -25.2579 -21.4612 0
rfingers 7.12502 0 0
rthumb 1.26243 -51.4372 0
73
root 5.98282 16.774 -27.9829 12.7254 3.18795 -4.43601
lfemur -40.1603 16.4728 -17.2555
ltibia 53.1737 0 0
lfoot -20.7668 -5.20576 0
ltoes 25.6979 0 0
rfemur -18.1329 0.982652 22.3438
rtibia 29.6817 0 0
rfoot -25.0556 -19.7026 0
rtoes -12.4628 0 0
lowerback -4.72446 2.82566 2.98875
upperback -1.96656 3.63752 0.00158862
thorax 0.807157 1.80996 -1.47078
lowerneck -10.1186 -2.61662 2.71443
upperneck -5.84617 -3.69258 1.70826
head -0.168473 -1.87656 -0.0192893
lclavicle -4.6615e-14 -1.39149e-14 0
lhumerus -40.965 -9.70938 92.8762
lradius 44.0986 0 0
lwrist 8.46577 0 0
lhand -15.7642 1.37344 0
lfingers 7.12502 0 0
lthumb 10.4277 31.0948 0
rclavicle -4.6615e-14 -1.39149e-14 0
rhumerus -37.9317 3.48364 -91.5011
rradius 41.9134 0 0
rwrist 9.61126 0 0
rhand -25.2853 -21.405 0
rfingers 7.12502 0 0
rthumb 1.23599 -51.3812 0
74
root 6.0056 16.7703 -27.948 12.7113 3.25391 -4.54989
lfemur -40.2425 16.1488 -16.8422
ltibia 52.6074 0 0
lfoot -20.5923 -3.97343 0
ltoes 24.9039 0 0
rfemur -17.8749 0.919738 22.4043
rtibia 29.4863 0 0
rfoot -25.267 -19.7425 0
rtoes -12.2066 0 0
lowerback -4.7183 2.9058 2.96759
upperback -1.99925 3.74593 0.0270885
thorax 0.771801 1.86366 -1.42804
lowerneck -10.1747 -2.68977 2.78279
upperneck -5.79937 -3.79942 1.68944
head -0.147444 -1.93003 -0.0405388
lclavicle -4.62473e-14 -1.63242e-14 0
lhumerus -41.1137 -9.58216 92.7376
lradius 44.1301 0 0
lwrist 8.52871 0 0
lhand -15.5292 1.39644 0
lfingers 7.12502 0 0
lthumb 10.6544 31.1056 0
rclavicle -4.62473e-14 -1.63242e-14 0
rhumerus -37.8179 3.49738 -91.3665
rradius 42.0427 0 0
rwrist 9.4042 0 0
rhand -25.2199 -21.4767 0
rfingers 7.12502 0 0
rthumb 1.29914 -51.4525 0
75
root 6.02998 16.7663 -27.9107 12.6962 3.32453 -4.67181
lfemur -40.3305 15.8018 -16.3997
ltibia 52.0011 0 0
lfoot -20.4054 -2.65412 0
ltoes 24.0538 0 0
rfemur -17.5987 0.852383 22.4691
rtibia 29.277 0 0
rfoot -25.4933 -19.7853 0
rtoes -11.9324 0 0
lowerback -4.71171 2.99159 2.94493
upperback -2.03425 3.86199 0.0543884
thorax 0.733949 1.92115 -1.38228
lowerneck -10.2349 -2.76808 2.85598
upperneck -5.74928 -3.91381 1.66929
head -0.124932 -1.98728 -0.0632882
lclavicle -4.58537e-14 -1.89037e-14 0
lhumerus -41.2728 -9.44596 92.5892
lradius 44.1639 0 0
lwrist 8.5961 0 0
lhand -15.2776 1.42106 0
lfingers 7.12502 0 0
lthumb 10.897 31.1171 0
rclavicle -4.58537e-14 -1.89037e-14 0
rhumerus -37.696 3.51209 -91.2223
rradius 42.1811 0 0
rwrist 9.18253 0 0
rhand -25.1499 -21.5536 0
rfingers 7.12502 0 0
rthumb 1.36675 -51.5289 0
76
root 6.05518 16.7622 -27.8722 12.6806 3.39748 -4.79775
lfemur -40.4214 15.4435 -15.9427
ltibia 51.3749 0 0
lfoot -20.2124 -1.2913 0
ltoes 23.1758 0 0
rfemur -17.3134 0.782808 22.536
rtibia 29.0609 0 0
rfoot -25.727 -19.8294 0
rtoes -11.6491 0 0
lowerback -4.70489 3.08021 2.92152
upperback -2.07039 3.98188 0.0825883
thorax 0.69485 1.98053 -1.33502
lowerneck -10.297 -2.84897 2.93158
upperneck -5.69752 -4.03196 1.64847
head -0.101677 -2.04642 -0.0867877
lclavicle -4.54471e-14 -2.15681e-14 0
lhumerus -41.4372 -9.30526 92.4359
lradius 44.1988 0 0
lwrist 8.6657 0 0
lhand -15.0177 1.4465 0
lfingers 7.12502 0 0
lthumb 11.1477 31.129 0
rclavicle -4.54471e-14 -2.15681e-14 0
rhumerus -37.5701 3.52729 -91.0735
rradius 42.3241 0 0
rwrist 8.95355 0 0
rhand -25.0776 -21.6329 0
rfingers 7.12502 0 0
rthumb 1.4366 -51.6077 0
77
root 6.08037 16.758 -27.8336 12.665 3.47042 -4.92369
lfemur -40.5123 15.0852 -15.4857
ltibia 50.7487 0 0
lfoot -20.0193 0.0715053 0
ltoes 22.2977 0 0
rfemur -17.0281 0.713233 22.6029
rtibia 28.8448 0 0
rfoot -25.9607 -19.8735 0
rtoes -11.3657 0 0
lowerback -4.69808 3.16883 2.89812
upperback -2.10654 4.10177 0.110788
thorax 0.655751 2.03991 -1.28776
lowerneck -10.359 -2.92986 3.00718
upperneck -5.64577 -4.15012 1.62766
head -0.0784215 -2.10555 -0.110287
lclavicle -4.50406e-14 -2.42325e-14 0
lhumerus -41.6016 -9.16457 92.2827
lradius 44.2336 0 0
lwrist 8.73531 0 0
lhand -14.7577 1.47193 0
lfingers 7.12502 0 0
lthumb 11.3984 31.1409 0
rclavicle -4.50406e-14 -2.42325e-14 0
rhumerus -37.4443 3.54248 -90.9246
rradius 42.4672 0 0
rwrist 8.72457 0 0
rhand -25.0053 -21.7122 0
rfingers 7.12502 0 0
rthumb 1.50644 -51.6866 0
